<?xml version="1.0" encoding="UTF-8"?>
<svg id="Layer_1" xmlns="http://www.w3.org/2000/svg" version="1.1" viewBox="0 0 401.20001 86">
  <!-- Generator: Adobe Illustrator 29.0.1, SVG Export Plug-In . SVG Version: 2.1.0 Build 192)  -->
  <defs>
    <style>
      .st0 {
        fill: #393;
      }
    </style>
  </defs>
  <g>
    <path d="M155.19454,45.2367V4.79979h7.03281v40.43691h-7.03281Z"/>
    <path d="M189.09015,45.2367v-16.18803c0-3.81842-.06159-5.94082-1.39282-7.27443-.54481-.54481-1.8192-1.27202-3.69999-1.27202-3.3352,0-6.18243,1.87842-6.60881,2.18162v22.55286h-6.66684V15.65103h5.81883v2.18162c.48796-.36242,4.18321-3.02963,8.79279-3.02963,3.6384,0,6.00241,1.33361,7.39523,2.72643,3.09359,3.09359,3.032,6.85279,3.032,11.15681v16.55045h-6.6704Z"/>
    <path d="M211.77329,46.02312c-6.30561,0-10.42723-2.84724-10.79202-3.15044l2.36401-4.3656c.6064.3032,3.75684,2.30242,7.76002,2.30242,3.39679,0,5.1544-1.57522,5.1544-3.63603,0-2.30479-2.36401-3.09122-6.3672-4.78961-3.27361-1.39519-7.82161-3.3352-7.82161-8.73121,0-5.33442,4.48641-8.84964,10.97204-8.84964,6.12558,0,9.39919,2.5464,9.57922,2.66721l-2.30242,4.24243c-.3032-.18002-3.51522-1.99922-6.85042-1.99922s-4.72802,1.63681-4.72802,3.33283c0,2.1224,2.24084,3.032,5.27283,4.30638,4.12162,1.69602,9.03441,3.57681,9.03441,9.39683s-4.72802,9.27365-11.27524,9.27365Z"/>
    <path d="M248.75893,45.2367v-2.2432c-.48796.36242-4.18321,3.02963-8.79279,3.02963-3.6384,0-5.94082-1.27202-7.39523-2.72643-3.09359-3.09359-3.032-6.85042-3.032-11.15444V15.65103h6.6704v16.12644c0,3.81842.06159,5.94082,1.39282,7.27443.6064.6064,1.75761,1.27439,3.81842,1.27439,3.45837,0,6.18717-2.00159,6.49037-2.18399V15.65103h6.66566v29.58567h-5.81765Z"/>
    <path d="M279.56214,20.62303c-.3032-.06159-1.33124-.18239-1.99922-.18239-5.39601,0-7.8832,3.57681-8.55118,4.54563v20.25043h-6.66566V15.65103h5.81765v3.7592c.24161-.42401,3.69999-4.60722,9.64081-4.60722,2.1224,0,3.09359.6064,3.27361.66562l-1.516,5.1544Z"/>
    <path d="M301.32146,45.2367v-2.18399c-.42164.3032-3.88001,2.79039-8.72647,2.79039-5.82238,0-9.51763-3.82079-9.51763-9.33761,0-10.12403,12.54963-10.36564,16.67125-10.36564h1.08962v-1.15358c0-1.87842-.18002-2.90882-.97119-3.69762-.84801-.84801-2.06081-1.33361-4.78961-1.33361-3.99845,0-7.57526,2.06081-8.00163,2.30479l-2.30242-4.30402c.48322-.42637,4.30638-3.21439,10.85361-3.21439,4.42482,0,7.09203,1.03041,9.21443,3.1528,2.30242,2.30479,2.30242,5.21362,2.30242,9.15521v18.18725h-5.82238ZM300.83824,30.86787h-1.39282c-4.18321,0-7.51841.6064-9.21443,2.30479-.79116.78642-1.15121,1.75761-1.15121,3.02963,0,3.032,2.36401,4.48641,5.21125,4.48641,3.45364,0,6.064-1.75761,6.54722-1.99922v-7.82161Z"/>
    <path d="M332.85424,45.2367v-16.18803c0-3.81842-.06159-5.94082-1.39282-7.27443-.54481-.54481-1.8192-1.27202-3.69999-1.27202-3.3352,0-6.18243,1.87842-6.60881,2.18162v22.55286h-6.66566V15.65103h5.81765v2.18162c.48796-.36242,4.18321-3.02963,8.79279-3.02963,3.6384,0,6.00241,1.33361,7.39523,2.72643,3.09359,3.09359,3.032,6.85279,3.032,11.15681v16.55045h-6.6704Z"/>
    <path d="M359.3659,45.96391c-8.91123,0-14.7952-6.24402-14.7952-15.15762,0-9.33524,6.54722-16.00327,15.4016-16.00327,5.87923,0,9.45604,2.90882,9.82083,3.39442l-2.7288,4.18321c-.48322-.3032-2.97041-2.06081-6.6704-2.06081-5.75606,0-9.09126,4.91042-9.09126,10.00323,0,5.87923,3.21202,10.06244,8.78806,10.06244,4.12636,0,7.2768-2.1224,7.51841-2.2432l2.61036,4.3656c-.18476.18239-4.30638,3.456-10.85361,3.456Z"/>
    <path d="M398.90093,32.44309h-20.06804c0,3.57918,2.24084,8.1864,8.42801,8.1864,4.12162,0,7.27206-1.8192,8.12481-2.2432l2.30242,4.36323c-.3032.18239-4.548,3.21439-10.97204,3.21439-9.27602,0-14.43042-6.60881-14.43042-15.33765,0-9.27602,5.63762-15.82324,14.00404-15.82324,8.06322,0,12.72965,5.82002,12.72965,15.27606,0,.97119-.11844,1.88079-.11844,2.36401ZM386.41289,19.89583c-4.12636,0-7.03518,3.09122-7.58,7.57763h13.88087c0-2.5464-1.02804-7.57763-6.30087-7.57763Z"/>
  </g>
  <g>
    <path class="st0" d="M45.2,45.6h-9.21218l-3.00338-8.7974H14.71194l-2.93983,8.7974H2.49855L18.67948,2.87017h6.68228c2.26672,0,3.72354.70827,4.31829,2.34992.58968,1.64019,7.95887,20.64475,7.95887,20.64475h-8.61742l-5.23032-14.43522-6.62771,18.18496h18.50465c2.48237,0,3.84676.81015,4.5029,2.8542l5.02898,13.13122Z"/>
    <path class="st0" d="M126.00033,45.6h-9.21192l-3.00121-8.7974h-18.27494l-2.94201,8.7974h-9.27137L99.48223,2.87017h6.67986c2.26696,0,3.72378.70827,4.31587,2.34992.59209,1.64019,7.9613,20.64475,7.9613,20.64475h-8.61742l-5.23032-14.43522-6.62528,18.18496h18.50465c2.48017,0,3.84457.81015,4.5007,2.8542l5.02875,13.13122Z"/>
    <path class="st0" d="M48.12066,2.87138h16.75652c13.08028,0,19.49478,6.95104,19.49478,21.39087,0,7.96494-2.49424,13.97096-6.95225,17.53368-4.15966,3.32574-8.79765,3.79946-14.91598,3.79946h-14.38307V2.87138ZM63.80895,37.87325c8.1437,0,11.58781-3.98429,11.58781-13.611,0-9.5081-3.26413-13.9079-10.51958-13.9079h-8.1391v27.5189h7.07086Z"/>
    <path class="st0" d="M132.06432,45.79429c-2.84715,0-5.10225-2.23131-5.10225-5.07848,0-2.84741,2.2551-5.09764,5.10225-5.09764,2.84498,0,5.10006,2.25023,5.10006,5.09764,0,2.84717-2.25508,5.07848-5.10006,5.07848ZM132.06432,36.91611c-2.1413,0-3.84918,1.65814-3.84918,3.7997,0,2.14132,1.70788,3.7803,3.84918,3.7803,2.13889,0,3.847-1.63898,3.847-3.7803,0-2.14156-1.70811-3.7997-3.847-3.7997ZM133.29362,43.31193l-.63937-1.3644c-.34106-.72962-.38617-.72962-1.09202-.72962h-.18241v2.09402h-1.00201v-5.306h1.32171c.68232,0,1.22954.02353,1.68434.4548.31969.29835.5021.70585.5021,1.14173,0,.52102-.27482,1.04689-.88825,1.22687.27239.13753.4548.43588.52344.61586l.81961,1.86674h-1.04713ZM132.49778,39.01013c-.2297-.07107-.5021-.0473-.75313-.0473h-.36483v1.29818c.31969,0,.63963.02353.9569-.06646.31753-.08999.57099-.22728.57099-.63963,0-.31727-.18483-.47833-.40993-.54479Z"/>
  </g>
  <g>
    <path d="M164.48068,82.04485c-1.51855,1.38086-3.51172,1.33789-6.35889,1.33789h-2.7998v-14.3916h4.36572c1.61377,0,3.1084.06543,4.24756,1.10059.854.77734,1.23389,1.68359,1.23389,2.76172,0,2.24414-1.80371,3.04199-2.53906,3.15039,1.58984.21582,3.03711,1.18652,3.03711,3.21484,0,1.14355-.42725,2.13574-1.18652,2.82617ZM162.41672,71.30071c-.85449-.8418-2.34912-.77734-3.6543-.77734h-1.37598v4.83301h1.20996c1.30518,0,2.7998-.04297,3.70166-.79785.47461-.38867.73535-.92773.73535-1.66211,0-.64648-.21338-1.20801-.6167-1.5957ZM162.79611,77.64348c-.94922-.86328-2.49121-.79785-4.10498-.79785h-1.30469v4.96191h1.75586c1.85059,0,2.82324-.12891,3.67773-.90625.45068-.41016.68799-1.07812.68799-1.63965,0-.56055-.18994-1.14355-.71191-1.61816Z"/>
    <path d="M177.87082,83.38274l-1.82715-3.75391c-1.09131-2.22266-1.61328-2.41699-3.74902-2.41699h-.99658v6.1709h-2.08789v-14.3916h3.51172c2.11182,0,3.74902-.02148,5.03027,1.14355.78271.71289,1.23389,1.66211,1.23389,2.87012,0,.99219-.30859,1.83398-.97314,2.48145-.56934.56055-1.49463,1.03516-2.53857,1.14355.52197.02148,1.04395.30176,1.35254.58203.47461.43164.80664,1.12207,1.23389,2.00684l2.04053,4.16406h-2.23047ZM176.18625,71.27825c-.85449-.77637-1.96973-.75488-3.25098-.75488h-1.63721v5.15723h.73584c1.51855,0,3.06055.04297,4.05713-.86328.49854-.45312.7832-1.12207.7832-1.8125,0-.77637-.33203-1.40234-.68799-1.72656Z"/>
    <path d="M189.11984,83.66301c-4.17627,0-7.18945-3.08496-7.18945-7.44336,0-4.44434,2.98975-7.50879,7.30811-7.50879,4.22314,0,7.16553,3.06445,7.16553,7.40039,0,4.48828-2.96582,7.55176-7.28418,7.55176ZM189.09592,70.35051c-3.01318,0-4.98242,2.30859-4.98242,5.82617,0,3.49512,2.20654,5.8252,5.10107,5.8252,3.29834,0,5.00635-2.56738,5.00635-5.95508,0-3.43066-2.11133-5.69629-5.125-5.69629Z"/>
    <path d="M208.5051,83.38274l-6.50098-6.81836v6.81836h-2.11182v-14.3916h2.11182v6.75391l6.38281-6.75391h2.37305l-6.71484,7.03418,7.04688,7.35742h-2.58691Z"/>
    <path d="M213.67795,83.38274v-14.3916h8.75586v1.59668h-6.66797v4.53125h6.26465v1.55371h-6.26465v5.07031h6.85742v1.63965h-8.94531Z"/>
    <path d="M234.50021,83.38274l-1.82617-3.75391c-1.0918-2.22266-1.61426-2.41699-3.74902-2.41699h-.99707v6.1709h-2.08789v-14.3916h3.51172c2.11133,0,3.74902-.02148,5.03027,1.14355.7832.71289,1.2334,1.66211,1.2334,2.87012,0,.99219-.30859,1.83398-.97266,2.48145-.56934.56055-1.49512,1.03516-2.53906,1.14355.52246.02148,1.04395.30176,1.35254.58203.47461.43164.80664,1.12207,1.23438,2.00684l2.04004,4.16406h-2.23047ZM232.81564,71.27825c-.85352-.77637-1.96875-.75488-3.25-.75488h-1.6377v5.15723h.73535c1.51855,0,3.06152.04297,4.05762-.86328.49805-.45312.7832-1.12207.7832-1.8125,0-.77637-.33203-1.40234-.68848-1.72656Z"/>
    <path d="M239.54318,83.38274v-14.3916h8.75586v1.59668h-6.66797v4.53125h6.26465v1.55371h-6.26465v5.07031h6.85742v1.63965h-8.94531Z"/>
    <path d="M262.45431,81.44133c-1.99316,1.81152-4.34277,1.94141-7.28516,1.94141h-3.46387v-14.3916h3.48828c3.06055,0,5.3623.1084,7.26074,1.83398,1.39941,1.27344,2.25391,3.17188,2.25391,5.26465,0,2.17969-.80664,4.03516-2.25391,5.35156ZM260.86447,71.90423c-1.37695-1.25098-2.94238-1.35938-5.6709-1.35938h-1.37695v11.2627h1.96973c2.1123,0,3.82031-.21582,5.17285-1.4668,1.06738-.99316,1.58984-2.5459,1.58984-4.29395,0-1.4668-.35645-2.93457-1.68457-4.14258Z"/>
    <path d="M283.38205,82.04485c-1.51855,1.38086-3.51172,1.33789-6.35938,1.33789h-2.7998v-14.3916h4.36621c1.61328,0,3.1084.06543,4.24707,1.10059.85352.77734,1.2334,1.68359,1.2334,2.76172,0,2.24414-1.80273,3.04199-2.53906,3.15039,1.58984.21582,3.03711,1.18652,3.03711,3.21484,0,1.14355-.42676,2.13574-1.18555,2.82617ZM281.3176,71.30071c-.85449-.8418-2.34961-.77734-3.6543-.77734h-1.37598v4.83301h1.20996c1.30469,0,2.7998-.04297,3.70117-.79785.47461-.38867.73633-.92773.73633-1.66211,0-.64648-.21387-1.20801-.61719-1.5957ZM281.69748,77.64348c-.94922-.86328-2.49219-.79785-4.10547-.79785h-1.30469v4.96191h1.75586c1.85059,0,2.82324-.12891,3.67773-.90625.45117-.41016.6875-1.07812.6875-1.63965,0-.56055-.18945-1.14355-.71094-1.61816Z"/>
    <path d="M293.16525,77.68645v5.69629h-2.1123v-5.69629l-5.00586-8.69531h2.25391l3.93848,7.0127,3.8916-7.0127h2.04004l-5.00586,8.69531Z"/>
    <path d="M316.91623,83.38274l-.90137-2.63184h-5.55176l-.92578,2.63184h-3.96289l5.71875-14.3916h3.8916l5.76562,14.3916h-4.03418ZM313.19162,72.70305l-1.82715,5.39355h3.70117l-1.87402-5.39355Z"/>
    <path d="M323.2258,83.38274v-14.3916h3.93848v11.52246h5.95508v2.86914h-9.89355Z"/>
    <path d="M335.80099,83.38274v-14.3916h3.93848v11.52246h5.95508v2.86914h-9.89355Z"/>
    <path d="M348.37717,83.38274v-14.3916h3.89062v14.3916h-3.89062Z"/>
    <path d="M365.84885,83.38274l-.90137-2.63184h-5.55273l-.9248,2.63184h-3.96289l5.71875-14.3916h3.8916l5.76562,14.3916h-4.03418ZM362.12424,72.70305l-1.82715,5.39355h3.70117l-1.87402-5.39355Z"/>
    <path d="M381.48654,83.38274l-6.38281-8.80273.09473,8.80273h-3.53516v-14.3916h3.41602l6.14551,8.69531-.07129-8.69531h3.51172v14.3916h-3.17871Z"/>
    <path d="M395.18381,71.81829v11.56445h-3.93945v-11.56445h-4.22363v-2.82715h12.3623v2.82715h-4.19922Z"/>
  </g>
</svg>