<?xml version="1.0" encoding="UTF-8"?>
<svg id="Layer_1" xmlns="http://www.w3.org/2000/svg" version="1.1" viewBox="0 0 401.2 86">
  <!-- Generator: Adobe Illustrator 29.0.1, SVG Export Plug-In . SVG Version: 2.1.0 Build 192)  -->
  <defs>
    <style>
      .st0 {
        fill: #fff;
      }
    </style>
  </defs>
  <g>
    <path class="st0" d="M155.1945,45.2367V4.7998h7.0328v40.4369h-7.0328Z"/>
    <path class="st0" d="M189.0902,45.2367v-16.188c0-3.8184-.0616-5.9408-1.3928-7.2744-.5448-.5448-1.8192-1.272-3.7-1.272-3.3352,0-6.1824,1.8784-6.6088,2.1816v22.5529h-6.6668V15.651h5.8188v2.1816c.488-.3624,4.1832-3.0296,8.7928-3.0296,3.6384,0,6.0024,1.3336,7.3952,2.7264,3.0936,3.0936,3.032,6.8528,3.032,11.1568v16.5504h-6.6704Z"/>
    <path class="st0" d="M211.7733,46.0231c-6.3056,0-10.4272-2.8472-10.792-3.1504l2.364-4.3656c.6064.3032,3.7568,2.3024,7.76,2.3024,3.3968,0,5.1544-1.5752,5.1544-3.636,0-2.3048-2.364-3.0912-6.3672-4.7896-3.2736-1.3952-7.8216-3.3352-7.8216-8.7312,0-5.3344,4.4864-8.8496,10.972-8.8496,6.1256,0,9.3992,2.5464,9.5792,2.6672l-2.3024,4.2424c-.3032-.18-3.5152-1.9992-6.8504-1.9992s-4.728,1.6368-4.728,3.3328c0,2.1224,2.2408,3.032,5.2728,4.3064,4.1216,1.696,9.0344,3.5768,9.0344,9.3968s-4.728,9.2737-11.2752,9.2737Z"/>
    <path class="st0" d="M248.7589,45.2367v-2.2432c-.488.3624-4.1832,3.0296-8.7928,3.0296-3.6384,0-5.9408-1.272-7.3952-2.7264-3.0936-3.0936-3.032-6.8504-3.032-11.1544V15.651h6.6704v16.1264c0,3.8184.0616,5.9408,1.3928,7.2744.6064.6064,1.7576,1.2744,3.8184,1.2744,3.4584,0,6.1872-2.0016,6.4904-2.184V15.651h6.6657v29.5857h-5.8176Z"/>
    <path class="st0" d="M279.5621,20.623c-.3032-.0616-1.3312-.1824-1.9992-.1824-5.396,0-7.8832,3.5768-8.5512,4.5456v20.2504h-6.6657V15.651h5.8176v3.7592c.2416-.424,3.7-4.6072,9.6408-4.6072,2.1224,0,3.0936.6064,3.2736.6656l-1.516,5.1544Z"/>
    <path class="st0" d="M301.3215,45.2367v-2.184c-.4216.3032-3.88,2.7904-8.7265,2.7904-5.8224,0-9.5176-3.8208-9.5176-9.3376,0-10.124,12.5496-10.3656,16.6713-10.3656h1.0896v-1.1536c0-1.8784-.18-2.9088-.9712-3.6976-.848-.848-2.0608-1.3336-4.7896-1.3336-3.9984,0-7.5753,2.0608-8.0016,2.3048l-2.3024-4.304c.4832-.4264,4.3064-3.2144,10.8536-3.2144,4.4248,0,7.092,1.0304,9.2144,3.1528,2.3024,2.3048,2.3024,5.2136,2.3024,9.1552v18.1873h-5.8224ZM300.8382,30.8679h-1.3928c-4.1832,0-7.5184.6064-9.2144,2.3048-.7912.7864-1.1512,1.7576-1.1512,3.0296,0,3.032,2.364,4.4864,5.2112,4.4864,3.4536,0,6.064-1.7576,6.5472-1.9992v-7.8216Z"/>
    <path class="st0" d="M332.8542,45.2367v-16.188c0-3.8184-.0616-5.9408-1.3928-7.2744-.5448-.5448-1.8192-1.272-3.7-1.272-3.3352,0-6.1824,1.8784-6.6088,2.1816v22.5529h-6.6657V15.651h5.8176v2.1816c.488-.3624,4.1832-3.0296,8.7928-3.0296,3.6384,0,6.0024,1.3336,7.3952,2.7264,3.0936,3.0936,3.032,6.8528,3.032,11.1568v16.5504h-6.6704Z"/>
    <path class="st0" d="M359.3659,45.9639c-8.9112,0-14.7952-6.244-14.7952-15.1576,0-9.3352,6.5472-16.0033,15.4016-16.0033,5.8792,0,9.456,2.9088,9.8208,3.3944l-2.7288,4.1832c-.4832-.3032-2.9704-2.0608-6.6704-2.0608-5.7561,0-9.0913,4.9104-9.0913,10.0032,0,5.8792,3.212,10.0624,8.7881,10.0624,4.1264,0,7.2768-2.1224,7.5184-2.2432l2.6104,4.3656c-.1848.1824-4.3064,3.456-10.8536,3.456Z"/>
    <path class="st0" d="M398.9009,32.4431h-20.068c0,3.5792,2.2408,8.1864,8.428,8.1864,4.1216,0,7.2721-1.8192,8.1248-2.2432l2.3024,4.3632c-.3032.1824-4.548,3.2144-10.972,3.2144-9.276,0-14.4304-6.6088-14.4304-15.3376,0-9.276,5.6376-15.8232,14.004-15.8232,8.0632,0,12.7297,5.82,12.7297,15.2761,0,.9712-.1184,1.8808-.1184,2.364ZM386.4129,19.8958c-4.1264,0-7.0352,3.0912-7.58,7.5776h13.8809c0-2.5464-1.028-7.5776-6.3009-7.5776Z"/>
  </g>
  <g>
    <path class="st0" d="M45.2,45.6h-9.2122l-3.0034-8.7974H14.7119l-2.9398,8.7974H2.4986L18.6795,2.8702h6.6823c2.2667,0,3.7235.7083,4.3183,2.3499.5897,1.6402,7.9589,20.6448,7.9589,20.6448h-8.6174l-5.2303-14.4352-6.6277,18.185h18.5046c2.4824,0,3.8468.8101,4.5029,2.8542l5.029,13.1312Z"/>
    <path class="st0" d="M126.0003,45.6h-9.2119l-3.0012-8.7974h-18.2749l-2.942,8.7974h-9.2714L99.4822,2.8702h6.6799c2.267,0,3.7238.7083,4.3159,2.3499.5921,1.6402,7.9613,20.6448,7.9613,20.6448h-8.6174l-5.2303-14.4352-6.6253,18.185h18.5046c2.4802,0,3.8446.8101,4.5007,2.8542l5.0288,13.1312Z"/>
    <path class="st0" d="M48.1207,2.8714h16.7565c13.0803,0,19.4948,6.951,19.4948,21.3909,0,7.9649-2.4942,13.971-6.9523,17.5337-4.1597,3.3257-8.7976,3.7995-14.916,3.7995h-14.3831V2.8714ZM63.8089,37.8733c8.1437,0,11.5878-3.9843,11.5878-13.611,0-9.5081-3.2641-13.9079-10.5196-13.9079h-8.1391v27.5189h7.0709Z"/>
    <path class="st0" d="M132.0643,45.7943c-2.8472,0-5.1022-2.2313-5.1022-5.0785s2.2551-5.0976,5.1022-5.0976c2.845,0,5.1001,2.2502,5.1001,5.0976s-2.2551,5.0785-5.1001,5.0785ZM132.0643,36.9161c-2.1413,0-3.8492,1.6581-3.8492,3.7997s1.7079,3.7803,3.8492,3.7803c2.1389,0,3.847-1.639,3.847-3.7803s-1.7081-3.7997-3.847-3.7997ZM133.2936,43.3119l-.6394-1.3644c-.3411-.7296-.3862-.7296-1.092-.7296h-.1824v2.094h-1.002v-5.306h1.3217c.6823,0,1.2295.0235,1.6843.4548.3197.2983.5021.7058.5021,1.1417,0,.521-.2748,1.0469-.8883,1.2269.2724.1375.4548.4359.5234.6159l.8196,1.8667h-1.0471ZM132.4978,39.0101c-.2297-.0711-.5021-.0473-.7531-.0473h-.3648v1.2982c.3197,0,.6396.0235.9569-.0665.3175-.09.571-.2273.571-.6396,0-.3173-.1848-.4783-.4099-.5448Z"/>
  </g>
  <g>
    <path class="st0" d="M164.4807,82.0449c-1.5186,1.3809-3.5117,1.3379-6.3589,1.3379h-2.7998v-14.3916h4.3657c1.6138,0,3.1084.0654,4.2476,1.1006.854.7773,1.2339,1.6836,1.2339,2.7617,0,2.2441-1.8037,3.042-2.5391,3.1504,1.5898.2158,3.0371,1.1865,3.0371,3.2148,0,1.1436-.4272,2.1357-1.1865,2.8262ZM162.4167,71.3007c-.8545-.8418-2.3491-.7773-3.6543-.7773h-1.376v4.833h1.21c1.3052,0,2.7998-.043,3.7017-.7979.4746-.3887.7354-.9277.7354-1.6621,0-.6465-.2134-1.208-.6167-1.5957ZM162.7961,77.6435c-.9492-.8633-2.4912-.7979-4.105-.7979h-1.3047v4.9619h1.7559c1.8506,0,2.8232-.1289,3.6777-.9062.4507-.4102.688-1.0781.688-1.6396,0-.5605-.1899-1.1436-.7119-1.6182Z"/>
    <path class="st0" d="M177.8708,83.3827l-1.8271-3.7539c-1.0913-2.2227-1.6133-2.417-3.749-2.417h-.9966v6.1709h-2.0879v-14.3916h3.5117c2.1118,0,3.749-.0215,5.0303,1.1436.7827.7129,1.2339,1.6621,1.2339,2.8701,0,.9922-.3086,1.834-.9731,2.4814-.5693.5605-1.4946,1.0352-2.5386,1.1436.522.0215,1.0439.3018,1.3525.582.4746.4316.8066,1.1221,1.2339,2.0068l2.0405,4.1641h-2.2305ZM176.1862,71.2782c-.8545-.7764-1.9697-.7549-3.251-.7549h-1.6372v5.1572h.7358c1.5186,0,3.0605.043,4.0571-.8633.4985-.4531.7832-1.1221.7832-1.8125,0-.7764-.332-1.4023-.688-1.7266Z"/>
    <path class="st0" d="M189.1198,83.663c-4.1763,0-7.1895-3.085-7.1895-7.4434,0-4.4443,2.9897-7.5088,7.3081-7.5088,4.2231,0,7.1655,3.0645,7.1655,7.4004,0,4.4883-2.9658,7.5518-7.2842,7.5518ZM189.0959,70.3505c-3.0132,0-4.9824,2.3086-4.9824,5.8262,0,3.4951,2.2065,5.8252,5.1011,5.8252,3.2983,0,5.0063-2.5674,5.0063-5.9551,0-3.4307-2.1113-5.6963-5.125-5.6963Z"/>
    <path class="st0" d="M208.5051,83.3827l-6.501-6.8184v6.8184h-2.1118v-14.3916h2.1118v6.7539l6.3828-6.7539h2.373l-6.7148,7.0342,7.0469,7.3574h-2.5869Z"/>
    <path class="st0" d="M213.6779,83.3827v-14.3916h8.7559v1.5967h-6.668v4.5312h6.2646v1.5537h-6.2646v5.0703h6.8574v1.6396h-8.9453Z"/>
    <path class="st0" d="M234.5002,83.3827l-1.8262-3.7539c-1.0918-2.2227-1.6143-2.417-3.749-2.417h-.9971v6.1709h-2.0879v-14.3916h3.5117c2.1113,0,3.749-.0215,5.0303,1.1436.7832.7129,1.2334,1.6621,1.2334,2.8701,0,.9922-.3086,1.834-.9727,2.4814-.5693.5605-1.4951,1.0352-2.5391,1.1436.5225.0215,1.0439.3018,1.3525.582.4746.4316.8066,1.1221,1.2344,2.0068l2.04,4.1641h-2.2305ZM232.8156,71.2782c-.8535-.7764-1.9688-.7549-3.25-.7549h-1.6377v5.1572h.7354c1.5186,0,3.0615.043,4.0576-.8633.498-.4531.7832-1.1221.7832-1.8125,0-.7764-.332-1.4023-.6885-1.7266Z"/>
    <path class="st0" d="M239.5432,83.3827v-14.3916h8.7559v1.5967h-6.668v4.5312h6.2646v1.5537h-6.2646v5.0703h6.8574v1.6396h-8.9453Z"/>
    <path class="st0" d="M262.4543,81.4413c-1.9932,1.8115-4.3428,1.9414-7.2852,1.9414h-3.4639v-14.3916h3.4883c3.0605,0,5.3623.1084,7.2607,1.834,1.3994,1.2734,2.2539,3.1719,2.2539,5.2646,0,2.1797-.8066,4.0352-2.2539,5.3516ZM260.8645,71.9042c-1.377-1.251-2.9424-1.3594-5.6709-1.3594h-1.377v11.2627h1.9697c2.1123,0,3.8203-.2158,5.1729-1.4668,1.0674-.9932,1.5898-2.5459,1.5898-4.2939,0-1.4668-.3564-2.9346-1.6846-4.1426Z"/>
    <path class="st0" d="M283.382,82.0449c-1.5186,1.3809-3.5117,1.3379-6.3594,1.3379h-2.7998v-14.3916h4.3662c1.6133,0,3.1084.0654,4.2471,1.1006.8535.7773,1.2334,1.6836,1.2334,2.7617,0,2.2441-1.8027,3.042-2.5391,3.1504,1.5898.2158,3.0371,1.1865,3.0371,3.2148,0,1.1436-.4268,2.1357-1.1855,2.8262ZM281.3176,71.3007c-.8545-.8418-2.3496-.7773-3.6543-.7773h-1.376v4.833h1.21c1.3047,0,2.7998-.043,3.7012-.7979.4746-.3887.7363-.9277.7363-1.6621,0-.6465-.2139-1.208-.6172-1.5957ZM281.6975,77.6435c-.9492-.8633-2.4922-.7979-4.1055-.7979h-1.3047v4.9619h1.7559c1.8506,0,2.8232-.1289,3.6777-.9062.4512-.4102.6875-1.0781.6875-1.6396,0-.5605-.1895-1.1436-.7109-1.6182Z"/>
    <path class="st0" d="M293.1653,77.6865v5.6963h-2.1123v-5.6963l-5.0059-8.6953h2.2539l3.9385,7.0127,3.8916-7.0127h2.04l-5.0059,8.6953Z"/>
    <path class="st0" d="M316.9162,83.3827l-.9014-2.6318h-5.5518l-.9258,2.6318h-3.9629l5.7188-14.3916h3.8916l5.7656,14.3916h-4.0342ZM313.1916,72.7031l-1.8271,5.3936h3.7012l-1.874-5.3936Z"/>
    <path class="st0" d="M323.2258,83.3827v-14.3916h3.9385v11.5225h5.9551v2.8691h-9.8936Z"/>
    <path class="st0" d="M335.801,83.3827v-14.3916h3.9385v11.5225h5.9551v2.8691h-9.8936Z"/>
    <path class="st0" d="M348.3772,83.3827v-14.3916h3.8906v14.3916h-3.8906Z"/>
    <path class="st0" d="M365.8488,83.3827l-.9014-2.6318h-5.5527l-.9248,2.6318h-3.9629l5.7188-14.3916h3.8916l5.7656,14.3916h-4.0342ZM362.1242,72.7031l-1.8271,5.3936h3.7012l-1.874-5.3936Z"/>
    <path class="st0" d="M381.4865,83.3827l-6.3828-8.8027.0947,8.8027h-3.5352v-14.3916h3.416l6.1455,8.6953-.0713-8.6953h3.5117v14.3916h-3.1787Z"/>
    <path class="st0" d="M395.1838,71.8183v11.5645h-3.9395v-11.5645h-4.2236v-2.8271h12.3623v2.8271h-4.1992Z"/>
  </g>
</svg>