<?xml version="1.0" encoding="UTF-8"?>
<svg id="Layer_1" xmlns="http://www.w3.org/2000/svg" version="1.1" viewBox="0 0 401.202 85.972">
  <!-- Generator: Adobe Illustrator 29.0.1, SVG Export Plug-In . SVG Version: 2.1.0 Build 192)  -->
  <defs>
    <style>
      .st0 {
        fill: #393;
      }
    </style>
  </defs>
  <g>
    <path d="M155.089,45.265V4.881h7.024v40.384h-7.024Z"/>
    <path d="M188.043,45.265v-16.167c0-3.813-.062-5.933-1.391-7.265-.544-.544-1.817-1.27-3.695-1.27-3.331,0-6.174,1.876-6.6,2.179v22.523h-6.658V15.718h5.811v2.179c.487-.362,4.178-3.026,8.781-3.026,3.634,0,5.995,1.332,7.386,2.723,3.09,3.09,3.028,6.844,3.028,11.142v16.529h-6.662Z"/>
    <path d="M210.696,46.05c-6.297,0-10.414-2.844-10.778-3.146l2.361-4.36c.606.303,3.752,2.299,7.75,2.299,3.392,0,5.148-1.573,5.148-3.631,0-2.302-2.361-3.087-6.359-4.783-3.269-1.393-7.811-3.331-7.811-8.72,0-5.327,4.481-8.838,10.958-8.838,6.118,0,9.387,2.543,9.567,2.664l-2.299,4.237c-.303-.18-3.511-1.997-6.841-1.997s-4.722,1.635-4.722,3.328c0,2.12,2.238,3.028,5.266,4.301,4.116,1.694,9.023,3.572,9.023,9.385s-4.722,9.262-11.26,9.262Z"/>
    <path d="M247.633,45.265v-2.24c-.487.362-4.178,3.026-8.781,3.026-3.634,0-5.933-1.27-7.386-2.723-3.09-3.09-3.028-6.841-3.028-11.14V15.718h6.662v16.105c0,3.813.062,5.933,1.391,7.265.606.606,1.755,1.273,3.813,1.273,3.454,0,6.179-1.999,6.482-2.181V15.718h6.657v29.547h-5.81Z"/>
    <path d="M278.396,20.683c-.303-.062-1.329-.182-1.997-.182-5.389,0-7.873,3.572-8.54,4.54v20.224h-6.657V15.718h5.81v3.754c.241-.423,3.695-4.601,9.628-4.601,2.12,0,3.09.606,3.269.665l-1.514,5.148Z"/>
    <path d="M300.127,45.265v-2.181c-.421.303-3.875,2.787-8.715,2.787-5.815,0-9.505-3.816-9.505-9.325,0-10.111,12.533-10.352,16.649-10.352h1.088v-1.152c0-1.876-.18-2.905-.97-3.693-.847-.847-2.058-1.332-4.783-1.332-3.993,0-7.565,2.058-7.991,2.302l-2.299-4.298c.483-.426,4.301-3.21,10.839-3.21,4.419,0,7.083,1.029,9.202,3.149,2.299,2.302,2.299,5.207,2.299,9.143v18.163h-5.815ZM299.644,30.915h-1.391c-4.178,0-7.509.606-9.202,2.302-.79.785-1.15,1.755-1.15,3.026,0,3.028,2.361,4.481,5.204,4.481,3.449,0,6.056-1.755,6.539-1.997v-7.811Z"/>
    <path d="M331.618,45.265v-16.167c0-3.813-.062-5.933-1.391-7.265-.544-.544-1.817-1.27-3.695-1.27-3.331,0-6.174,1.876-6.6,2.179v22.523h-6.657V15.718h5.81v2.179c.487-.362,4.178-3.026,8.781-3.026,3.634,0,5.995,1.332,7.386,2.723,3.09,3.09,3.028,6.844,3.028,11.142v16.529h-6.662Z"/>
    <path d="M358.095,45.991c-8.9,0-14.776-6.236-14.776-15.138,0-9.323,6.539-15.982,15.381-15.982,5.872,0,9.444,2.905,9.808,3.39l-2.725,4.178c-.483-.303-2.967-2.058-6.662-2.058-5.748,0-9.079,4.904-9.079,9.99,0,5.872,3.208,10.049,8.777,10.049,4.121,0,7.267-2.12,7.509-2.24l2.607,4.36c-.185.182-4.301,3.451-10.839,3.451Z"/>
    <path d="M398.476,32.488h-20.042c0,3.575,2.238,8.176,8.417,8.176,4.116,0,7.263-1.817,8.114-2.24l2.299,4.358c-.303.182-4.542,3.21-10.958,3.21-9.264,0-14.411-6.6-14.411-15.318,0-9.264,5.63-15.803,13.986-15.803,8.053,0,12.713,5.812,12.713,15.256,0,.97-.118,1.878-.118,2.361ZM386.004,19.957c-4.121,0-7.026,3.087-7.57,7.568h13.863c0-2.543-1.027-7.568-6.293-7.568Z"/>
  </g>
  <g>
    <path class="st0" d="M45.239,45.628h-9.2l-2.999-8.786H14.791l-2.936,8.786H2.594L18.754,2.954h6.674c2.264,0,3.719.707,4.313,2.347.589,1.638,7.948,20.618,7.948,20.618h-8.606l-5.223-14.416-6.619,18.161h18.48c2.479,0,3.842.809,4.497,2.85l5.022,13.114Z"/>
    <path class="st0" d="M125.934,45.628h-9.2l-2.997-8.786h-18.251l-2.938,8.786h-9.259L99.45,2.954h6.671c2.264,0,3.719.707,4.31,2.347.591,1.638,7.951,20.618,7.951,20.618h-8.606l-5.223-14.416-6.617,18.161h18.48c2.477,0,3.84.809,4.495,2.85l5.022,13.114Z"/>
    <path class="st0" d="M48.156,2.955h16.735c13.063,0,19.469,6.942,19.469,21.363,0,7.955-2.491,13.953-6.943,17.511-4.154,3.321-8.786,3.794-14.896,3.794h-14.364V2.955ZM63.824,37.911c8.133,0,11.573-3.979,11.573-13.593,0-9.496-3.26-13.89-10.506-13.89h-8.128v27.483h7.062Z"/>
    <path class="st0" d="M131.99,45.822c-2.843,0-5.096-2.228-5.096-5.072s2.252-5.091,5.096-5.091,5.093,2.247,5.093,5.091-2.252,5.072-5.093,5.072ZM131.99,36.955c-2.138,0-3.844,1.656-3.844,3.795s1.706,3.775,3.844,3.775,3.842-1.637,3.842-3.775-1.706-3.795-3.842-3.795ZM133.217,43.343l-.639-1.363c-.341-.729-.386-.729-1.091-.729h-.182v2.091h-1.001v-5.299h1.32c.681,0,1.228.023,1.682.454.319.298.501.705.501,1.14,0,.52-.274,1.046-.887,1.225.272.137.454.435.523.615l.819,1.864h-1.046ZM132.422,39.047c-.229-.071-.501-.047-.752-.047h-.364v1.296c.319,0,.639.023.956-.066.317-.09.57-.227.57-.639,0-.317-.185-.478-.409-.544Z"/>
  </g>
  <g>
    <path d="M164.206,76.212c-1.548,1.408-3.314,1.319-5.66,1.319h-1.137v5.829h-2.153v-14.671h4.039c1.984,0,3.677.088,4.886,1.188.895.813,1.355,1.935,1.355,3.145,0,1.188-.411,2.354-1.33,3.19ZM162.464,70.91c-.75-.682-2.056-.66-3.338-.66h-1.717v5.676h1.088c1.718,0,3.072.044,3.943-.749.556-.506.919-1.121.919-2.177,0-.792-.314-1.562-.895-2.09Z"/>
    <path d="M174.995,83.646c-4.257,0-7.329-3.145-7.329-7.588,0-4.531,3.047-7.655,7.45-7.655,4.306,0,7.305,3.124,7.305,7.546,0,4.575-3.023,7.698-7.425,7.698ZM174.971,70.075c-3.071,0-5.079,2.354-5.079,5.939,0,3.563,2.249,5.939,5.2,5.939,3.362,0,5.104-2.617,5.104-6.071,0-3.498-2.153-5.806-5.225-5.806Z"/>
    <path d="M199.281,83.36h-2.612l-3.29-12.648-3.41,12.648h-2.613l-3.894-14.671h2.177l3.072,12.625,3.435-12.625h2.588l3.362,12.625,3.096-12.625h2.007l-3.918,14.671Z"/>
    <path d="M205.935,83.36v-14.671h8.925v1.628h-6.796v4.619h6.385v1.584h-6.385v5.169h6.99v1.672h-9.118Z"/>
    <path d="M227.378,83.36l-1.863-3.827c-1.112-2.266-1.644-2.464-3.822-2.464h-1.016v6.291h-2.128v-14.671h3.58c2.153,0,3.822-.022,5.128,1.166.798.726,1.258,1.694,1.258,2.925,0,1.012-.315,1.87-.992,2.53-.58.572-1.523,1.055-2.588,1.166.532.022,1.064.308,1.379.593.484.44.822,1.144,1.258,2.046l2.08,4.245h-2.274ZM225.661,71.021c-.871-.792-2.008-.771-3.314-.771h-1.669v5.258h.75c1.548,0,3.12.044,4.136-.88.508-.462.799-1.144.799-1.848,0-.792-.338-1.43-.701-1.759Z"/>
    <path d="M232.735,83.36v-14.671h8.925v1.628h-6.797v4.619h6.386v1.584h-6.386v5.169h6.991v1.672h-9.119Z"/>
    <path d="M256.307,81.381c-2.032,1.847-4.427,1.979-7.425,1.979h-3.532v-14.671h3.555c3.121,0,5.467.11,7.402,1.87,1.427,1.297,2.297,3.233,2.297,5.367,0,2.221-.822,4.113-2.297,5.455ZM254.686,71.658c-1.403-1.275-2.999-1.386-5.781-1.386h-1.403v11.482h2.007c2.153,0,3.895-.22,5.273-1.495,1.088-1.012,1.62-2.596,1.62-4.378,0-1.495-.362-2.991-1.717-4.223Z"/>
    <path d="M278.61,81.996c-1.548,1.408-3.58,1.364-6.482,1.364h-2.854v-14.671h4.45c1.645,0,3.169.066,4.33,1.121.87.792,1.258,1.716,1.258,2.816,0,2.288-1.839,3.102-2.589,3.212,1.621.22,3.096,1.21,3.096,3.278,0,1.166-.436,2.177-1.21,2.881ZM276.506,71.043c-.871-.858-2.395-.792-3.725-.792h-1.403v4.927h1.233c1.331,0,2.854-.044,3.774-.813.484-.396.749-.946.749-1.694,0-.66-.217-1.232-.628-1.628ZM276.893,77.509c-.968-.879-2.539-.813-4.185-.813h-1.33v5.059h1.79c1.886,0,2.878-.131,3.749-.924.459-.418.701-1.099.701-1.672s-.194-1.166-.726-1.65Z"/>
    <path d="M287.828,77.553v5.807h-2.153v-5.807l-5.104-8.864h2.298l4.015,7.148,3.967-7.148h2.08l-5.103,8.864Z"/>
    <path d="M313.009,83.36l-.92-2.683h-5.66l-.943,2.683h-4.039l5.829-14.671h3.966l5.877,14.671h-4.111ZM309.211,72.472l-1.862,5.499h3.773l-1.911-5.499Z"/>
    <path d="M319.66,83.36v-14.671h4.016v11.746h6.071v2.925h-10.087Z"/>
    <path d="M332.695,83.36v-14.671h4.016v11.746h6.071v2.925h-10.087Z"/>
    <path d="M345.731,83.36v-14.671h3.967v14.671h-3.967Z"/>
    <path d="M363.759,83.36l-.919-2.683h-5.66l-.943,2.683h-4.039l5.829-14.671h3.966l5.877,14.671h-4.112ZM359.962,72.472l-1.862,5.499h3.773l-1.911-5.499Z"/>
    <path d="M379.942,83.36l-6.507-8.974.097,8.974h-3.604v-14.671h3.483l6.264,8.864-.072-8.864h3.58v14.671h-3.242Z"/>
    <path d="M394.125,71.57v11.79h-4.015v-11.79h-4.306v-2.881h12.602v2.881h-4.281Z"/>
  </g>
</svg>