<?xml version="1.0" encoding="UTF-8"?>
<svg id="Layer_1" xmlns="http://www.w3.org/2000/svg" version="1.1" viewBox="0 0 401.2 86">
  <!-- Generator: Adobe Illustrator 29.0.1, SVG Export Plug-In . SVG Version: 2.1.0 Build 192)  -->
  <defs>
    <style>
      .st0 {
        fill: #393;
      }
    </style>
  </defs>
  <g>
    <path d="M155.1,45.3V4.9h7v40.4h-7Z"/>
    <path d="M188,45.3v-16.2c0-3.8,0-5.9-1.4-7.3-.5-.5-1.8-1.3-3.7-1.3-3.3,0-6.2,1.9-6.6,2.2v22.5h-6.7V15.7h5.8v2.2c.5-.4,4.2-3,8.8-3s6,1.3,7.4,2.7c3.1,3.1,3,6.8,3,11.1v16.5h-6.7,0Z"/>
    <path d="M210.7,46c-6.3,0-10.4-2.8-10.8-3.1l2.4-4.4c.6.3,3.8,2.3,7.8,2.3s5.1-1.6,5.1-3.6-2.4-3.1-6.4-4.8c-3.3-1.4-7.8-3.3-7.8-8.7s4.5-8.8,11-8.8,9.4,2.5,9.6,2.7l-2.3,4.2c-.3-.2-3.5-2-6.8-2s-4.7,1.6-4.7,3.3,2.2,3,5.3,4.3c4.1,1.7,9,3.6,9,9.4s-4.7,9.3-11.3,9.3h0Z"/>
    <path d="M247.6,45.3v-2.2c-.5.4-4.2,3-8.8,3s-5.9-1.3-7.4-2.7c-3.1-3.1-3-6.8-3-11.1V15.7h6.7v16.1c0,3.8,0,5.9,1.4,7.3.6.6,1.8,1.3,3.8,1.3,3.5,0,6.2-2,6.5-2.2V15.7h6.7v29.5h-5.8Z"/>
    <path d="M278.4,20.7c-.3,0-1.3-.2-2-.2-5.4,0-7.9,3.6-8.5,4.5v20.2h-6.7V15.7h5.8v3.8c.2-.4,3.7-4.6,9.6-4.6s3.1.6,3.3.7l-1.5,5.1h0Z"/>
    <path d="M300.1,45.3v-2.2c-.4.3-3.9,2.8-8.7,2.8s-9.5-3.8-9.5-9.3c0-10.1,12.5-10.4,16.6-10.4h1.1v-1.2c0-1.9-.2-2.9-1-3.7-.8-.8-2.1-1.3-4.8-1.3-4,0-7.6,2.1-8,2.3l-2.3-4.3c.5-.4,4.3-3.2,10.8-3.2s7.1,1,9.2,3.1c2.3,2.3,2.3,5.2,2.3,9.1v18.2h-5.8,0ZM299.6,30.9h-1.4c-4.2,0-7.5.6-9.2,2.3-.8.8-1.1,1.8-1.1,3,0,3,2.4,4.5,5.2,4.5s6.1-1.8,6.5-2v-7.8h0Z"/>
    <path d="M331.6,45.3v-16.2c0-3.8,0-5.9-1.4-7.3-.5-.5-1.8-1.3-3.7-1.3-3.3,0-6.2,1.9-6.6,2.2v22.5h-6.7V15.7h5.8v2.2c.5-.4,4.2-3,8.8-3s6,1.3,7.4,2.7c3.1,3.1,3,6.8,3,11.1v16.5h-6.7Z"/>
    <path d="M358.1,46c-8.9,0-14.8-6.2-14.8-15.1s6.5-16,15.4-16,9.4,2.9,9.8,3.4l-2.7,4.2c-.5-.3-3-2.1-6.7-2.1-5.7,0-9.1,4.9-9.1,10s3.2,10,8.8,10,7.3-2.1,7.5-2.2l2.6,4.4c-.2.2-4.3,3.5-10.8,3.5h0Z"/>
    <path d="M398.5,32.5h-20c0,3.6,2.2,8.2,8.4,8.2s7.3-1.8,8.1-2.2l2.3,4.4c-.3.2-4.5,3.2-11,3.2-9.3,0-14.4-6.6-14.4-15.3s5.6-15.8,14-15.8,12.7,5.8,12.7,15.3-.1,1.9-.1,2.4ZM386,20c-4.1,0-7,3.1-7.6,7.6h13.9c0-2.5-1-7.6-6.3-7.6Z"/>
  </g>
  <g>
    <path class="st0" d="M45.2,45.6h-9.2l-3-8.8H14.8l-2.9,8.8H2.6L18.8,3h6.7c2.3,0,3.7.7,4.3,2.3.6,1.6,7.9,20.6,7.9,20.6h-8.6l-5.2-14.4-6.6,18.2h18.5c2.5,0,3.8.8,4.5,2.8l5,13.1h0Z"/>
    <path class="st0" d="M125.9,45.6h-9.2l-3-8.8h-18.3l-2.9,8.8h-9.3L99.4,3h6.7c2.3,0,3.7.7,4.3,2.3.6,1.6,8,20.6,8,20.6h-8.6l-5.2-14.4-6.6,18.2h18.5c2.5,0,3.8.8,4.5,2.8l5,13.1h0Z"/>
    <path class="st0" d="M48.2,3h16.7c13.1,0,19.5,6.9,19.5,21.4s-2.5,14-6.9,17.5c-4.2,3.3-8.8,3.8-14.9,3.8h-14.4V3h0ZM63.8,37.9c8.1,0,11.6-4,11.6-13.6s-3.3-13.9-10.5-13.9h-8.1v27.5h7.1,0Z"/>
    <path class="st0" d="M132,45.8c-2.8,0-5.1-2.2-5.1-5.1s2.3-5.1,5.1-5.1,5.1,2.2,5.1,5.1-2.3,5.1-5.1,5.1ZM132,37c-2.1,0-3.8,1.7-3.8,3.8s1.7,3.8,3.8,3.8,3.8-1.6,3.8-3.8-1.7-3.8-3.8-3.8ZM133.2,43.3l-.6-1.4c-.3-.7-.4-.7-1.1-.7h-.2v2.1h-1v-5.3h1.3c.7,0,1.2,0,1.7.5.3.3.5.7.5,1.1s-.3,1-.9,1.2c.3.1.5.4.5.6l.8,1.9h-1,0ZM132.4,39c-.2,0-.5,0-.8,0h-.4v1.3c.3,0,.6,0,1,0,.3,0,.6-.2.6-.6s-.2-.5-.4-.5h0Z"/>
  </g>
  <g>
    <path d="M278.6,82c-1.5,1.4-3.6,1.4-6.5,1.4h-2.9v-14.7h4.5c1.6,0,3.2,0,4.3,1.1.9.8,1.3,1.7,1.3,2.8,0,2.3-1.8,3.1-2.6,3.2,1.6.2,3.1,1.2,3.1,3.3s-.4,2.2-1.2,2.9h0ZM276.5,71c-.9-.9-2.4-.8-3.7-.8h-1.4v4.9h1.2c1.3,0,2.9,0,3.8-.8.5-.4.7-.9.7-1.7s-.2-1.2-.6-1.6h0ZM276.9,77.5c-1-.9-2.5-.8-4.2-.8h-1.3v5.1h1.8c1.9,0,2.9-.1,3.7-.9.5-.4.7-1.1.7-1.7s-.2-1.2-.7-1.7h0Z"/>
    <path d="M287.8,77.6v5.8h-2.2v-5.8l-5.1-8.9h2.3l4,7.1,4-7.1h2.1l-5.1,8.9Z"/>
    <path d="M313,83.4l-.9-2.7h-5.7l-.9,2.7h-4l5.8-14.7h4l5.9,14.7h-4.1,0ZM309.2,72.5l-1.9,5.5h3.8l-1.9-5.5Z"/>
    <path d="M319.7,83.4v-14.7h4v11.7h6.1v2.9s-10.1,0-10.1,0Z"/>
    <path d="M332.7,83.4v-14.7h4v11.7h6.1v2.9s-10.1,0-10.1,0Z"/>
    <path d="M345.7,83.4v-14.7h4v14.7h-4Z"/>
    <path d="M363.8,83.4l-.9-2.7h-5.7l-.9,2.7h-4l5.8-14.7h4l5.9,14.7h-4.1,0ZM360,72.5l-1.9,5.5h3.8l-1.9-5.5Z"/>
    <path d="M379.9,83.4l-6.5-9v9c0,0-3.5,0-3.5,0v-14.7h3.5l6.3,8.9v-8.9c0,0,3.5,0,3.5,0v14.7h-3.2,0Z"/>
    <path d="M394.1,71.6v11.8h-4v-11.8h-4.3v-2.9h12.6v2.9h-4.3,0Z"/>
  </g>
  <g>
    <path d="M146,83.4v-14.7h5.5c1.1,0,2,.1,2.7.4.7.3,1.2.8,1.6,1.4s.6,1.3.6,1.9-.2,1.2-.5,1.8c-.3.6-.9,1-1.5,1.3.9.3,1.6.7,2,1.3.5.6.7,1.4.7,2.2s-.1,1.3-.4,1.9c-.3.6-.6,1-1.1,1.4-.4.3-1,.6-1.6.7-.6.2-1.4.2-2.4.2h-5.6ZM147.9,74.9h3.2c.9,0,1.5,0,1.9-.2.5-.1.9-.4,1.1-.7.2-.3.4-.8.4-1.3s-.1-.9-.4-1.3c-.2-.4-.6-.6-1-.8-.4-.1-1.2-.2-2.2-.2h-2.9v4.4ZM147.9,81.6h3.7c.6,0,1.1,0,1.3,0,.4,0,.8-.2,1.1-.4.3-.2.5-.5.7-.8.2-.4.3-.8.3-1.2s-.1-1-.4-1.4-.7-.7-1.2-.9c-.5-.2-1.2-.2-2.1-.2h-3.4v5Z"/>
    <path d="M159.8,83.4v-14.7h6.5c1.3,0,2.3.1,3,.4.7.3,1.2.7,1.6,1.4.4.7.6,1.4.6,2.2s-.3,1.9-1,2.6-1.7,1.2-3.1,1.4c.5.2.9.5,1.2.7.6.5,1.1,1.2,1.6,2l2.6,4h-2.4l-1.9-3.1c-.6-.9-1-1.6-1.4-2-.4-.5-.7-.8-1-1-.3-.2-.6-.3-.9-.4-.2,0-.6,0-1.1,0h-2.3v6.5h-1.9ZM161.7,75.2h4.2c.9,0,1.6,0,2.1-.3.5-.2.9-.5,1.1-.9.3-.4.4-.8.4-1.3,0-.7-.3-1.3-.8-1.7-.5-.4-1.3-.7-2.4-.7h-4.6v4.9Z"/>
    <path d="M174,76.2c0-2.4.7-4.3,2-5.7,1.3-1.4,3-2.1,5.1-2.1s2.6.3,3.7,1c1.1.6,1.9,1.5,2.5,2.7.6,1.2.9,2.5.9,3.9s-.3,2.8-.9,4-1.5,2.1-2.6,2.7c-1.1.6-2.3.9-3.6.9s-2.6-.3-3.7-1c-1.1-.7-1.9-1.6-2.5-2.7s-.8-2.4-.8-3.7ZM176,76.2c0,1.8.5,3.2,1.4,4.2,1,1,2.1,1.5,3.6,1.5s2.7-.5,3.6-1.5,1.4-2.5,1.4-4.4-.2-2.2-.6-3.1c-.4-.9-1-1.6-1.8-2.1s-1.7-.7-2.6-.7c-1.4,0-2.6.5-3.5,1.4s-1.5,2.5-1.5,4.7Z"/>
    <path d="M190.4,83.4v-14.7h1.9v7.3l7.3-7.3h2.6l-6.2,5.9,6.4,8.7h-2.6l-5.2-7.4-2.4,2.3v5.1h-1.9Z"/>
    <path d="M204.2,83.4v-14.7h10.6v1.7h-8.7v4.5h8.1v1.7h-8.1v5h9v1.7h-11Z"/>
    <path d="M217.9,83.4v-14.7h6.5c1.3,0,2.3.1,3,.4s1.2.7,1.6,1.4.6,1.4.6,2.2-.3,1.9-1,2.6-1.7,1.2-3.1,1.4c.5.2.9.5,1.2.7.6.5,1.1,1.2,1.6,2l2.6,4h-2.4l-1.9-3.1c-.6-.9-1-1.6-1.4-2-.4-.5-.7-.8-1-1-.3-.2-.6-.3-.9-.4-.2,0-.6,0-1.1,0h-2.3v6.5h-1.9ZM219.8,75.2h4.2c.9,0,1.6,0,2.1-.3s.9-.5,1.1-.9c.3-.4.4-.8.4-1.3,0-.7-.3-1.3-.8-1.7-.5-.4-1.3-.7-2.4-.7h-4.6v4.9Z"/>
    <path d="M232.7,83.4v-14.7h10.6v1.7h-8.7v4.5h8.1v1.7h-8.1v5h9v1.7h-11Z"/>
    <path d="M246.3,83.4v-14.7h5.1c1.1,0,2,0,2.6.2.8.2,1.6.5,2.2,1.1.8.7,1.4,1.5,1.7,2.5.4,1,.6,2.2.6,3.5s-.1,2.1-.4,3c-.3.9-.6,1.6-1,2.1-.4.6-.9,1-1.3,1.3-.5.3-1.1.6-1.8.7-.7.2-1.5.2-2.4.2h-5.3ZM248.3,81.6h3.1c1,0,1.7,0,2.3-.3.6-.2,1-.4,1.3-.8s.8-1.1,1.1-1.9c.3-.8.4-1.7.4-2.8s-.3-2.7-.8-3.5c-.5-.8-1.1-1.4-1.8-1.7-.5-.2-1.4-.3-2.5-.3h-3.1v11.2Z"/>
  </g>
</svg>