<?xml version="1.0" encoding="UTF-8"?>
<svg xmlns="http://www.w3.org/2000/svg" version="1.1" viewBox="0 0 100 100">
  <!-- Generator: Adobe Illustrator 29.0.1, SVG Export Plug-In . SVG Version: 2.1.0 Build 192)  -->
  <defs>
    <style>
      .st0, .st1, .st2 {
        stroke-linecap: round;
        stroke-linejoin: round;
      }

      .st0, .st1, .st2, .st3, .st4 {
        stroke: #393;
      }

      .st0, .st1, .st4 {
        stroke-width: 2.5px;
      }

      .st0, .st2, .st3, .st4 {
        fill: none;
      }

      .st5 {
        fill: #393;
      }

      .st1, .st6 {
        fill: #fff;
      }

      .st2 {
        stroke-width: 2.364px;
      }

      .st3 {
        stroke-width: 2.37px;
      }

      .st3, .st4 {
        stroke-miterlimit: 10;
      }

      .st7 {
        display: none;
      }
    </style>
  </defs>
  <g id="tooth" class="st7">
    <path class="st4" d="M73.817,7.5c-12.408,0-12.408,4.279-23.817,4.279s-11.409-4.279-23.817-4.279c-9.698,0-14.262,8.414-14.262,18.255,0,15.403,9.983,19.396,9.983,33.658,0,10.696,7.987,33.087,14.262,33.087s3.28-33.658,13.834-33.658,7.559,33.658,13.834,33.658,14.262-22.391,14.262-33.087c0-14.262,9.983-18.255,9.983-33.658,0-9.841-4.564-18.255-14.262-18.255Z"/>
    <path class="st5" d="M37.145,17.531c-.357.677,4.87,3.014,12.852,3.28,8.54.285,13.461-1.355,12.819-3.28s-6.418,1.38-12.819,1.371c-10-.015-12.496-2.048-12.852-1.371Z"/>
  </g>
  <g id="service" class="st7">
    <path class="st0" d="M83.997,36.827"/>
    <path class="st0" d="M16.428,41.863c0-18.659,15.126-33.785,33.785-33.785h0c18.659,0,33.785,15.126,33.785,33.785"/>
    <rect class="st3" x="-87.629" y="8.078" width="67.569" height="83.844" rx="23.755" ry="23.755"/>
    <path class="st1" d="M20.851,38.565c-1.069-.754-2.369-1.201-3.776-1.201h-2.254c-3.625,0-6.564,2.939-6.564,6.564v12.143c0,3.625,2.939,6.564,6.564,6.564h2.254c1.407,0,2.708-.447,3.776-1.201v-22.87Z"/>
    <path class="st0" d="M83.997,42.636v24.484c0,11.178-10.085,20.24-22.526,20.24h-11.259"/>
    <rect class="st1" x="42.04" y="83.885" width="16.345" height="6.948" rx="3.474" ry="3.474"/>
    <path class="st1" d="M79.188,61.435c1.069.754,2.369,1.201,3.776,1.201h2.254c3.625,0,6.564-2.939,6.564-6.564v-12.143c0-3.625-2.939-6.564-6.564-6.564h-2.254c-1.407,0-2.708.447-3.776,1.201v22.87Z"/>
    <path class="st5" d="M37.082,18.32c-.592-.465,4.358-4.515,13.197-4.673,9.435.017,14.131,3.646,12.888,5.17-1.057,1.699-6.001-3.156-12.931-3.261-10.625.137-12.657,3.567-13.153,2.764Z"/>
  </g>
  <g id="stages" class="st7">
    <g>
      <circle class="st0" cx="37.5" cy="62.5" r="25"/>
      <circle class="st0" cx="62.5" cy="62.5" r="25"/>
      <circle class="st0" cx="37.5" cy="37.5" r="25"/>
      <circle class="st0" cx="62.5" cy="37.5" r="25"/>
    </g>
  </g>
  <g id="phone" class="st7">
    <rect class="st1" x="25" y="10" width="50" height="80" rx="6.166" ry="6.166"/>
    <line class="st0" x1="44.5" y1="15" x2="55.5" y2="15"/>
    <rect class="st2" x="23.5" y="25.332" width="1.5" height="6"/>
    <rect class="st2" x="23.5" y="34.539" width="1.5" height="6"/>
    <rect class="st2" x="75" y="25.332" width="1.5" height="6"/>
    <circle class="st5" cx="50" cy="50" r="12.5"/>
    <path class="st6" d="M56.368,56.17c.223-.266.461-1.139.494-1.499.033-.36-.247-.54-.412-.627-.34-.18-2.344-1.379-2.507-1.477-.163-.098-.563-.102-.694-.004-.131.098-.458.458-.605.638-.147.18-.662.762-.776.844-.114.082-.323.248-.701.073-.273-.126-1.629-.852-2.741-1.963s-1.837-2.468-1.963-2.741c-.175-.378-.008-.586.073-.701.082-.114.664-.629.844-.776.18-.147.539-.474.638-.605.098-.131.094-.53-.004-.694-.098-.163-1.297-2.167-1.477-2.507-.087-.165-.268-.445-.627-.412-.36.033-1.233.271-1.499.494-.366.306-1.209,1.418-1.271,2.619-.057,1.098.592,2.94,1.31,4.15.921,1.554,2.262,2.889,2.262,2.889,0,0,1.334,1.34,2.889,2.262,1.21.717,3.052,1.367,4.15,1.31,1.201-.063,2.313-.906,2.619-1.271Z"/>
  </g>
  <g id="phone-touch">
    <circle class="st5" cx="50" cy="50" r="50"/>
    <path class="st6" d="M75.471,74.679c.89-1.064,1.845-4.558,1.976-5.996.131-1.438-.989-2.161-1.647-2.51-1.361-.721-9.375-5.517-10.028-5.91-.654-.392-2.251-.408-2.774-.015-.523.392-1.831,1.831-2.419,2.55-.588.719-2.646,3.048-3.104,3.375-.458.327-1.291.992-2.803.294-1.091-.504-6.516-3.407-10.963-7.853s-7.349-9.871-7.853-10.963c-.699-1.512-.033-2.345.294-2.803.327-.458,2.656-2.515,3.375-3.104.719-.588,2.158-1.896,2.55-2.419.392-.523.377-2.121-.015-2.774-.392-.654-5.189-8.667-5.91-10.028-.349-.659-1.071-1.778-2.51-1.647-1.438.131-4.933,1.086-5.996,1.976-1.462,1.224-4.835,5.671-5.086,10.476-.229,4.391,2.37,11.759,5.238,16.598,3.686,6.217,9.048,11.554,9.048,11.554,0,0,5.337,5.362,11.554,9.048,4.839,2.869,12.208,5.467,16.598,5.238,4.805-.251,9.252-3.623,10.476-5.086Z"/>
  </g>
</svg>