<?xml version="1.0" encoding="UTF-8"?>
<svg id="Layer_1" xmlns="http://www.w3.org/2000/svg" version="1.1" viewBox="0 0 360 101.4063">
  <!-- Generator: Adobe Illustrator 29.0.1, SVG Export Plug-In . SVG Version: 2.1.0 Build 192)  -->
  <defs>
    <style>
      .st0 {
        fill: #fff;
      }
    </style>
  </defs>
  <path class="st0" d="M304.7021,91.6441h-4.1361l-1.3475-3.9462h-8.2005l-1.3199,3.9462h-4.1608l7.2627-19.1785h3.0003c1.0148,0,1.6692.3191,1.9359,1.0559.264.7343,3.5723,9.2648,3.5723,9.2648h-3.8665l-2.3485-6.479-2.9727,8.162h8.3022c1.1138,0,1.7271.3631,2.0214,1.2815l2.2577,5.8933Z"/>
  <path class="st0" d="M338.709,85.7515c-.2942-.9185-.9075-1.2815-2.0212-1.2815h-8.3051l2.9756-8.162,2.3485,6.479h3.8663s-3.3083-8.5305-3.575-9.2675c-.264-.7343-.9185-1.0532-1.9359-1.0532h-3.0003l-7.26,19.1785h4.1608l1.3199-3.9491h8.2007l1.3475,3.9491h4.2349l-2.3567-5.8933Z"/>
  <path class="st0" d="M306.0135,72.4683h7.5212c5.8686,0,8.7505,3.1184,8.7505,9.6002,0,3.575-1.1192,6.2701-3.1213,7.8705-1.8671,1.4905-3.9489,1.705-6.6962,1.705h-6.4542v-19.1756ZM313.0535,88.1763c3.6547,0,5.2031-1.7876,5.2031-6.1078,0-4.268-1.4687-6.2426-4.7219-6.2426h-3.652v12.3503h3.1708Z"/>
  <path class="st0" d="M344.2463,86.0381c1.6775,0,2.9783,1.3035,2.9783,2.9259,0,1.661-1.3008,2.9454-2.9976,2.9454-1.6775,0-3.014-1.2844-3.014-2.9454,0-1.6224,1.3366-2.9259,3.014-2.9259h.0193ZM344.2078,86.6292c-.9213,0-1.7958.5473-2.0929,1.4218-.5692,1.6968.5116,3.2505,2.1313,3.2505,1.2842.0191,2.2275-1.0341,2.2275-2.3376,0-1.2842-.9433-2.3347-2.2468-2.3347h-.0191ZM343.7622,90.482h-.6764v-2.9095c.2667-.0522.6407-.1073,1.1221-.1073.5554,0,.8057.0908,1.0202.2338.1595.1237.2833.3547.2833.6242,0,.3382-.2503.5885-.6051.6957v.0358c.286.0908.4455.3218.5363.7122.088.4483.1403.6244.2118.715h-.7316c-.088-.1073-.1402-.3575-.231-.6957-.0522-.3218-.231-.4648-.6078-.4648h-.3218v1.1605ZM343.7815,88.8403h.3218c.374,0,.6793-.1237.6793-.429,0-.2667-.1981-.4455-.6271-.4455-.1788,0-.3025.0193-.374.0358v.8387Z"/>
  <path class="st0" d="M344.2463,3.9303c1.6775,0,2.9783,1.3035,2.9783,2.9259,0,1.661-1.3008,2.9454-2.9976,2.9454-1.6775,0-3.014-1.2844-3.014-2.9454,0-1.6224,1.3366-2.9259,3.014-2.9259h.0193ZM344.2078,4.5188c-.9213,0-1.7958.55-2.0929,1.4245-.5692,1.6968.5116,3.2505,2.1313,3.2505,1.2842.0191,2.2275-1.0341,2.2275-2.3376,0-1.2842-.9433-2.3374-2.2468-2.3374h-.0191ZM343.7622,8.3742h-.6764v-2.9095c.2667-.0522.6407-.1073,1.1221-.1073.5554,0,.8057.0908,1.0202.2338.1595.1237.2833.3547.2833.6242,0,.3382-.2503.5885-.6051.6957v.0358c.286.088.4455.3218.5363.7122.088.4483.1403.6244.2118.715h-.7316c-.088-.1073-.1402-.3575-.231-.6957-.0522-.3218-.231-.4648-.6078-.4648h-.3218v1.1605ZM343.7815,6.7325h.3218c.374,0,.6793-.1237.6793-.429,0-.2667-.1981-.4455-.6271-.4455-.1788,0-.3025.0193-.374.0358v.8387Z"/>
  <path class="st0" d="M98.6137,97.3503C51.4952,97.3503,14.109,61.5068,14.164,18.626c.0027-3.4566,2.8655-6.2342,6.3194-6.2342h22.6325c3.2312,0,6.1242,2.321,6.512,5.5302.4675,3.8445-2.519,7.1142-6.27,7.1142h-16.2113c3.5667,32.912,33.737,59.6723,71.467,59.6723,20.284,0,39.0968-7.282,53.0008-20.504,2.3264-2.2137,5.9868-2.541,8.4837-.5198,3.0277,2.4475,3.1378,6.897.418,9.5013-16.2828,15.5842-38.2663,24.1642-61.9025,24.1642"/>
  <path class="st0" d="M65.7809,12.4777c0-4.664,4.334-9.2042,11.5583-9.2042,7.4277,0,10.7305,4.1277,10.7305,4.1277l-5.3653,5.5715s-1.65-2.0625-4.1277-2.0625c-1.6528,0-2.4778.825-2.4778,1.8562,0,2.8903,12.5894,1.4465,12.5894,11.352,0,5.0765-4.334,9.6994-11.9707,9.6994-7.8402,0-12.1769-4.9528-12.1769-4.9528l5.368-5.3679s2.4778,2.6839,5.5715,2.6839c1.859,0,2.8902-1.0312,2.8902-2.2686,0-2.8903-12.5895-1.6528-12.5895-11.4346"/>
  <polygon class="st0" points="114.8954 26.388 107.8801 17.5138 107.8801 32.9935 98.5907 32.9935 98.5907 4.0993 106.8461 4.0993 114.8954 14.4172 122.9446 4.0993 131.2001 4.0993 131.2001 32.9935 121.9106 32.9935 121.9106 17.5138 114.8954 26.388"/>
  <rect class="st0" x="143.3612" y="4.0993" width="9.2868" height="28.8943"/>
  <polygon class="st0" points="164.8079 32.992 164.8079 4.0977 174.0947 4.0977 174.0947 24.5301 186.2717 24.5301 186.2717 32.992 164.8079 32.992"/>
  <polygon class="st0" points="221.3914 25.293 221.3914 32.9297 198.0686 32.9297 198.0686 4.0356 220.9788 4.0356 220.9788 11.6722 207.3554 11.6722 207.3554 14.7687 217.6761 14.7687 217.6761 21.784 207.3554 21.784 207.3554 25.293 221.3914 25.293"/>
  <path class="st0" d="M248.0951,25.5626c4.334,0,7.0153-3.3027,7.0153-3.3027l5.4505,5.7805s-4.2103,5.7778-12.6721,5.7778c-9.2868,0-16.3075-7.0153-16.3075-15.2735s7.0207-15.2707,16.3075-15.2707c8.4618,0,12.5895,5.7776,12.5895,5.7776l-5.5742,5.7806s-2.684-3.3029-6.809-3.3029c-4.1277,0-7.2243,3.0966-7.2243,7.0153,0,3.9216,3.0966,7.018,7.2243,7.018"/>
  <path class="st0" d="M285.5642,33.657c-9.2868,0-16.3048-7.0153-16.3048-15.2735s7.018-15.2707,16.3048-15.2707,16.3048,7.0152,16.3048,15.2707-7.018,15.2735-16.3048,15.2735M285.5642,25.4014c3.9216,0,7.0153-3.0964,7.0153-7.018,0-3.9187-3.0938-7.0153-7.0153-7.0153s-7.0153,3.0966-7.0153,7.0153c0,3.9216,3.0938,7.018,7.0153,7.018"/>
  <polygon class="st0" points="338.823 3.9379 338.823 32.8322 330.98 32.8322 320.0433 18.7988 320.0433 32.8322 310.7538 32.8322 310.7538 3.9379 318.5968 3.9379 329.5362 17.9712 329.5362 3.9379 338.823 3.9379"/>
  <polygon class="st0" points="119.3432 53.9496 115.727 41.6737 117.41 41.6737 120.259 51.934 123.5617 41.6737 124.714 41.6737 128.0277 51.934 130.8685 41.6737 132.5515 41.6737 128.9352 53.9496 127.2439 53.9496 124.142 44.6189 121.04 53.9496 119.3432 53.9496"/>
  <path class="st0" d="M133.3325,53.95l4.8565-12.276h1.4052l4.862,12.276h-1.6307l-1.3612-3.5805h-5.1426l-1.3695,3.5805h-1.6197ZM136.836,49.0384h4.114l-2.0597-5.3488-2.0543,5.3488Z"/>
  <path class="st0" d="M150.8315,54.1875c-.616,0-1.1633-.0853-1.6445-.2558-.4813-.1732-.8966-.3822-1.243-.6298-.3465-.2474-.6325-.4921-.8553-.7342-.2227-.2393-.3878-.429-.4923-.5665l.8277-1.1771c.1128.1376.2668.3164.4593.5363.1952.2174.4345.4372.7149.6546.2832.2172.6133.4015.99.5499.3767.1485.803.2256,1.2815.2256.4482,0,.8607-.0826,1.2265-.2392.3657-.1596.6601-.3961.88-.7068.22-.3135.3328-.7013.3328-1.1633,0-.3904-.0797-.7233-.2393-.9982-.1595-.2749-.3795-.5114-.6627-.7122-.2805-.1981-.6105-.3795-.9873-.5473-.3767-.165-.7864-.3327-1.221-.5005-.308-.1237-.6215-.2694-.9378-.4372-.319-.165-.6105-.3684-.8773-.6078-.2695-.2419-.484-.5279-.649-.8607-.1622-.3327-.2447-.7233-.2447-1.1743,0-.4565.0853-.8882.2585-1.2953.176-.407.4208-.7672.7398-1.0835.3162-.3135.6957-.5609,1.133-.7426.44-.1814.9268-.2722,1.463-.2722.4758,0,.9267.0744,1.3502.2227.4235.1485.8002.3384,1.1357.5693.33.231.594.473.7948.7259l-.7067,1.1083c-.1623-.2145-.374-.4153-.6243-.6049-.2529-.1925-.5445-.3466-.8717-.4676-.3273-.1182-.6793-.1788-1.056-.1788-.462,0-.8525.0963-1.1715.2889-.3218.1897-.5638.4372-.7342.7397-.1678.3025-.253.6242-.253.968,0,.3053.0633.5665.1898.781.1265.2118.297.3933.5115.5418.2117.1485.451.2805.7205.3933.2667.1155.5445.2254.8277.33.5033.1979.9817.4015,1.4327.6131.4538.2091.8498.4565,1.1908.737.3438.2806.6132.616.8085,1.0066.198.3933.2942.8663.2942,1.4217,0,.7481-.1788,1.3888-.5335,1.9168s-.8387.9295-1.4547,1.21c-.6133.2749-1.3146.4153-2.1038.4153"/>
  <polygon class="st0" points="158.4878 53.9496 158.4878 41.6737 159.9976 41.6737 159.9976 47.1324 166.0696 47.1324 166.0696 41.6737 167.5794 41.6737 167.5794 53.9496 166.0696 53.9496 166.0696 48.4579 159.9976 48.4579 159.9976 53.9496 158.4878 53.9496"/>
  <rect class="st0" x="172.1784" y="41.6727" width="1.5098" height="12.276"/>
  <polygon class="st0" points="178.2422 53.9496 178.2422 41.6737 179.752 41.6737 185.9588 51.3977 185.9588 41.6737 187.4684 41.6737 187.4684 53.9496 185.9588 53.9496 179.752 44.2311 179.752 53.9496 178.2422 53.9496"/>
  <path class="st0" d="M197.3789,54.1875c-.847,0-1.639-.1623-2.3705-.4868s-1.3723-.7783-1.9195-1.3586-.9762-1.2567-1.2815-2.0267c-.308-.7728-.4619-1.606-.4619-2.4969,0-.8334.1375-1.6308.4151-2.3953.2778-.7645.6821-1.4436,1.2129-2.0405.5307-.594,1.1769-1.0641,1.9388-1.4134.7617-.3464,1.6224-.5198,2.585-.5198.6049,0,1.1879.0744,1.7461.22.5556.1457,1.0781.352,1.5593.6215.4812.2667.9075.5829,1.2788.9515l-.7508,1.1605c-.4565-.4923-1.0257-.8829-1.7023-1.1716-.6764-.2915-1.3888-.4346-2.1311-.4346-.7179,0-1.3586.1294-1.9197.3933-.5609.264-1.0339.6244-1.4217,1.0863-.3877.4621-.6793.99-.88,1.584-.2007.5969-.3025,1.2293-.3025,1.8975,0,.7261.1128,1.3943.3409,2.0048.2256.6133.5391,1.1496.9462,1.6033.4069.4592.8799.8112,1.4217,1.0615.539.2503,1.1247.3768,1.749.3768.5061,0,.9984-.0853,1.4796-.2529.4812-.1678.9158-.4099,1.298-.7261.385-.3162.6904-.6902.9158-1.1274s.3382-.9213.3382-1.4576v-.3575h-4.1359v-1.1989h5.6841v1.3255c0,.8332-.1621,1.5702-.4839,2.2137s-.7535,1.1825-1.298,1.6226c-.5445.4372-1.1469.7728-1.8151.9982-.6682.2283-1.3475.3438-2.035.3438"/>
  <polygon class="st0" points="208.9701 53.9496 208.9701 43.0267 205.4142 43.0267 205.4142 41.6737 214.0437 41.6737 214.0437 43.0267 210.4799 43.0267 210.4799 53.9496 208.9701 53.9496"/>
  <path class="st0" d="M221.8124,54.1868c-.858,0-1.661-.1623-2.4089-.4896-.7508-.3273-1.4081-.7837-1.9745-1.3668-.5638-.5829-1.0066-1.2595-1.3255-2.0294-.3218-.7728-.4812-1.6006-.4812-2.4833,0-.8882.1595-1.7159.4812-2.4833.3189-.7699.7617-1.4465,1.3255-2.0294.5665-.5829,1.2238-1.0368,1.9745-1.3639.7479-.3273,1.5509-.4923,2.4089-.4923s1.661.165,2.4118.4923c.7479.3271,1.4052.781,1.9717,1.3639.5638.5829,1.0066,1.2595,1.3255,2.0294.3218.7674.4812,1.595.4812,2.4833,0,.8827-.1595,1.7105-.4812,2.4833-.3189.7699-.7617,1.4465-1.3255,2.0294-.5665.5831-1.2238,1.0395-1.9717,1.3668-.7508.3273-1.5538.4896-2.4118.4896M221.8124,52.7292c.6462,0,1.2431-.1237,1.7985-.3713.5527-.2474,1.0341-.594,1.4494-1.0395.4151-.4428.7368-.9653.968-1.562.231-.5967.3464-1.2431.3464-1.9388,0-.693-.1155-1.3392-.3464-1.9388-.2311-.5967-.5529-1.1163-.968-1.562-.4153-.4426-.8966-.7892-1.4494-1.0366-.5554-.2476-1.1523-.3741-1.7985-.3741-.6435,0-1.2431.1266-1.7958.3741-.5554.2474-1.0368.594-1.452,1.0366-.4151.4456-.7368.9653-.968,1.562-.231.5995-.3464,1.2458-.3464,1.9388,0,.6957.1155,1.3421.3464,1.9388.2311.5967.5529,1.1192.968,1.562.4153.4455.8966.7921,1.452,1.0395.5527.2476,1.1523.3713,1.7958.3713"/>
  <polygon class="st0" points="231.2702 53.9496 231.2702 41.6737 232.78 41.6737 238.9839 51.3977 238.9839 41.6737 240.4964 41.6737 240.4964 53.9496 238.9839 53.9496 232.78 44.2311 232.78 53.9496 231.2702 53.9496"/>
  <path class="st0" d="M243.1663,55.9814l-.3933-.3218c.099-.1073.1952-.2474.2887-.4208.0935-.1677.1761-.352.2449-.5499.0715-.1954.1126-.385.1264-.5667-.2336-.0522-.4208-.1595-.5609-.33-.143-.1677-.2118-.3684-.2118-.6022,0-.2832.0908-.5114.2751-.6902.1841-.1788.4235-.2696.715-.2696.3025,0,.5445.0963.7286.2915.1816.1925.2751.4648.2751.8167,0,.4372-.1375.8993-.4126,1.3861-.2749.4839-.6353.9047-1.0752,1.2567"/>
  <path class="st0" d="M254.5136,53.951v-12.2787h2.9452c.8718,0,1.683.1568,2.4338.4701.7481.3109,1.4054.7481,1.969,1.3035.5611.5583,1.001,1.2129,1.3146,1.9581.3162.7452.473,1.5509.473,2.4145s-.1568,1.6665-.4675,2.4118c-.3135.7424-.7508,1.3941-1.3146,1.9524s-1.2209.9928-1.9717,1.3008c-.7508.3107-1.5648.4675-2.4366.4675h-2.9452ZM256.0234,52.5953h1.287c.6709,0,1.2924-.121,1.8671-.3602.5749-.242,1.0781-.5776,1.5071-1.0121.429-.4344.7617-.9431,1.001-1.5234.2392-.5802.3575-1.21.3575-1.8893s-.1183-1.309-.3575-1.8893c-.2393-.5802-.572-1.0863-1.001-1.518s-.9322-.7672-1.5071-1.0119c-.5747-.242-1.1962-.3631-1.8671-.3631h-1.287v9.5673Z"/>
  <path class="st0" d="M264.8702,54.1875c-.1843,0-.3493-.044-.4978-.1348-.1484-.088-.2694-.209-.3602-.3575-.088-.1484-.1319-.3107-.1319-.4894s.044-.3438.1319-.4923c.0908-.1485.2118-.2667.3602-.352.1485-.088.3109-.1319.4896-.1319.1843,0,.3493.044.495.1319.1457.0853.264.2034.3493.352.088.1485.1319.3135.1319.4923s-.044.3411-.1319.4894c-.0853.1485-.2036.2696-.3493.3575-.1457.0908-.308.1348-.4868.1348"/>
  <path class="st0" d="M274.6629,54.1875c-.9213,0-1.782-.1623-2.5768-.4868-.7974-.3244-1.4932-.7755-2.0927-1.3557-.5967-.5776-1.0615-1.254-1.3943-2.0267-.3327-.7728-.4977-1.6088-.4977-2.4997,0-.8938.165-1.727.5005-2.4997.3355-.7756.803-1.4494,1.397-2.0267.594-.5802,1.2869-1.0312,2.0816-1.3559.7948-.3244,1.6528-.4868,2.5741-.4868.7645,0,1.4849.1101,2.1615.33.6793.2227,1.2704.5225,1.7765.9049l-.6848,1.2733c-.407-.3273-.8856-.5804-1.4301-.7563-.5445-.1761-1.1219-.264-1.727-.264-.7286,0-1.397.1237-2.0074.3713-.6105.2503-1.1385.594-1.5895,1.0395-.4483.4428-.7948.9624-1.0395,1.5538-.2476.594-.3686,1.232-.3686,1.9168s.121,1.3226.3686,1.9166c.2447.5913.5912,1.111,1.0395,1.5538.451.4455.979.7892,1.5895,1.0395.6105.2476,1.2788.3713,2.0074.3713.6051,0,1.1825-.088,1.727-.264.5445-.1759,1.023-.429,1.4301-.7561l.6848,1.2733c-.4978.3711-1.0836.6709-1.7574.8965-.6737.2254-1.3997.3382-2.1724.3382"/>
  <path class="st0" d="M281.5676,54.1875c-.1843,0-.3493-.044-.4978-.1348-.1484-.088-.2694-.209-.3573-.3575-.0908-.1484-.1348-.3107-.1348-.4894s.044-.3438.1348-.4923c.088-.1485.209-.2667.3573-.352.1485-.088.3109-.1319.4896-.1319.1843,0,.3493.044.495.1319.1485.0853.264.2034.352.352.0853.1485.1292.3135.1292.4923s-.044.3411-.1292.4894c-.088.1485-.2034.2696-.352.3575-.1457.0908-.308.1348-.4868.1348"/>
  <path class="st0" d="M292.4775,53.9496v-1.4878c.902-.6793,1.6994-1.309,2.3898-1.8837.6875-.5747,1.2815-1.0999,1.7765-1.5729s.902-.9075,1.2127-1.3035c.3135-.3933.5418-.7563.6902-1.0863.1459-.33.2174-.6408.2174-.9322,0-.308-.0715-.5913-.2174-.8498-.1402-.2558-.3409-.4648-.5938-.6215-.2531-.1539-.5418-.2336-.8691-.2336-.3025,0-.5829.0797-.8414.2336-.2585.1568-.495.3988-.715.7233-.2172.3246-.4208.737-.6105,1.2375l-2.3789-1.1605c.1871-.5747.429-1.0808.7288-1.5207.2971-.4401.6462-.8114,1.0479-1.1165.4015-.3053.8496-.5391,1.3446-.6986.4923-.1621,1.0286-.242,1.6088-.242.8992,0,1.6939.1788,2.3869.5391.6904.3602,1.2348.8525,1.6253,1.4767.3906.6242.5858,1.3392.5858,2.1422,0,.3933-.0495.781-.1541,1.166-.1044.385-.2667.7672-.4894,1.1467-.22.3768-.4977.759-.8305,1.1412-.3382.3824-.7342.7701-1.1962,1.1633-.4619.396-.9873.7974-1.5784,1.21h4.4741v2.53h-9.6139Z"/>
  <path class="st0" d="M310.1487,54.1866c-1.0037,0-1.8837-.2667-2.6427-.803-.7563-.5363-1.3503-1.2815-1.7765-2.2413-.4263-.9542-.6408-2.0652-.6408-3.3247,0-1.2651.2145-2.3734.6408-3.3276.4262-.9569,1.0202-1.7023,1.7765-2.2384.759-.5336,1.639-.8031,2.6427-.8031,1.0066,0,1.8893.2696,2.6483.8031.759.5361,1.3502,1.2815,1.7765,2.2384.4235.9542.6353,2.0625.6353,3.3276,0,1.2595-.2118,2.3705-.6353,3.3247-.4263.9597-1.0175,1.705-1.7765,2.2413s-1.6417.803-2.6483.803M310.1487,51.6649c.4263,0,.7921-.1512,1.0945-.4592.3025-.3053.5363-.7426.6984-1.3199.165-.5749.2449-1.2651.2449-2.068,0-.8085-.0799-1.4987-.2449-2.0707-.1621-.5749-.396-1.0121-.6984-1.3173-.3025-.3053-.6682-.4592-1.0945-.4592-.4208,0-.7865.1539-1.0917.4592-.3053.3051-.5363.7424-.6986,1.3173-.1595.572-.242,1.2622-.242,2.0707,0,.803.0826,1.4932.242,2.068.1623.5774.3933,1.0146.6986,1.3199.3051.308.6709.4592,1.0917.4592"/>
  <path class="st0" d="M318.2873,53.9496v-1.4878c.902-.6793,1.6994-1.309,2.3898-1.8837.6875-.5747,1.2815-1.0999,1.7765-1.5729.4977-.473.902-.9075,1.2127-1.3035.3135-.3933.5418-.7563.6902-1.0863.1459-.33.2174-.6408.2174-.9322,0-.308-.0715-.5913-.2145-.8498-.143-.2558-.3438-.4648-.5967-.6215-.2531-.1539-.5418-.2336-.8691-.2336-.3025,0-.5829.0797-.8414.2336-.2558.1568-.495.3988-.715.7233-.2172.3246-.4208.737-.6105,1.2375l-2.3789-1.1605c.1871-.5747.4319-1.0808.7288-1.5207.2971-.4401.6462-.8114,1.0479-1.1165.4015-.3053.8496-.5391,1.3446-.6986.4923-.1621,1.0286-.242,1.6115-.242.8965,0,1.6912.1788,2.3843.5391.6904.3602,1.2348.8525,1.6253,1.4767.3906.6242.5858,1.3392.5858,2.1422,0,.3933-.0495.781-.1541,1.166-.1044.385-.2667.7672-.4894,1.1467-.22.3768-.4977.759-.8305,1.1412-.3355.3824-.7342.7701-1.1962,1.1633-.4619.396-.9873.7974-1.5757,1.21h4.4714v2.53h-9.6139Z"/>
  <path class="st0" d="M334.8942,54.173c-.6517,0-1.2651-.1017-1.8453-.3053-.5802-.2034-1.089-.5032-1.5262-.8965-.4344-.396-.759-.8827-.9735-1.463l2.2688-1.0945c.1099.407.3464.737.7123.9873.3629.2503.7948.3768,1.2897.3768.3766,0,.6984-.0744.968-.2229.2667-.1512.473-.3547.6131-.616.1403-.2612.2118-.5554.2118-.8882,0-.4455-.121-.825-.3684-1.1385-.2449-.3134-.5969-.5527-1.0561-.7177-.4592-.1677-1.0093-.2503-1.6472-.2503-.4015,0-.7837.0413-1.1467.1239-.3631.0824-.6986.1979-1.0119.352l1.0559-6.7486h6.2645v2.5246h-3.8088l-.2749,1.7985c1.2016-.1128,2.2137.0742,3.0442.5665.3766.1981.7013.4592.9735.7838.2722.3271.4839.6984.6324,1.1219.1485.4208.2227.8856.2227,1.3916,0,.8772-.2007,1.6389-.6022,2.2879-.4015.6462-.9515,1.1467-1.6446,1.4987-.6957.352-1.4794.528-2.3512.528"/>
</svg>