<?xml version="1.0" encoding="UTF-8"?>
<svg xmlns="http://www.w3.org/2000/svg" version="1.1" viewBox="0 0 100 100">
  <!-- Generator: Adobe Illustrator 29.0.1, SVG Export Plug-In . SVG Version: 2.1.0 Build 192)  -->
  <defs>
    <style>
      .st0 {
        fill: #6d6e71;
      }

      .st1 {
        fill: #fff;
      }

      .st2 {
        display: none;
      }
    </style>
  </defs>
  <g id="Layer_1" class="st2">
    <circle class="st1" cx="50" cy="50" r="45"/>
    <path class="st0" d="M50,0C22.388,0,0,22.388,0,50s22.388,50,50,50,50-22.382,50-50S77.615,0,50,0ZM60.712,50.018h-7.007v24.982h-10.382v-24.982h-4.938v-8.826h4.938v-5.713c0-4.089,1.941-10.48,10.477-10.48l7.691.031v8.569h-5.582c-.909,0-2.203.452-2.203,2.405v5.188h7.916l-.909,8.826Z"/>
  </g>
  <g id="Layer_2" class="st2">
    <circle class="st1" cx="50" cy="50" r="45"/>
    <g>
      <path class="st0" d="M52.997,46.326v-.104c-.018.037-.046.073-.07.104h.07Z"/>
      <path class="st0" d="M50,0C22.385,0,0,22.388,0,50s22.385,50,50,50,50-22.382,50-50S77.612,0,50,0ZM36.352,73.895h-10.721v-32.239h10.721v32.239ZM30.991,37.25h-.07c-3.595,0-5.92-2.478-5.92-5.573,0-3.162,2.399-5.572,6.061-5.572s5.927,2.411,5.994,5.572c0,3.094-2.325,5.573-6.064,5.573ZM75,73.895h-10.718v-17.248c0-4.333-1.55-7.294-5.432-7.294-2.957,0-4.724,2.002-5.499,3.925-.284.69-.354,1.642-.354,2.612v18.005h-10.715s.137-29.217,0-32.239h10.715v4.566c1.428-2.203,3.973-5.323,9.662-5.323,7.049,0,12.341,4.602,12.341,14.508v18.487Z"/>
    </g>
  </g>
  <g id="Layer_3">
    <circle class="st1" cx="50" cy="50" r="45"/>
    <g>
      <circle class="st0" cx="50" cy="50" r="9.544"/>
      <path class="st0" d="M50,0C22.386,0,0,22.386,0,50s22.386,50,50,50,50-22.386,50-50S77.614,0,50,0ZM78.46,61.805c-.139,3.048-.623,5.129-1.331,6.95-.732,1.883-1.711,3.48-3.303,5.071-1.592,1.592-3.189,2.571-5.071,3.303-1.821.708-3.902,1.192-6.95,1.331-3.054.139-4.029.172-11.805.172s-8.751-.033-11.805-.172c-3.048-.139-5.129-.623-6.95-1.331-1.883-.732-3.48-1.711-5.071-3.303s-2.571-3.189-3.302-5.071c-.708-1.821-1.192-3.902-1.331-6.95-.139-3.054-.172-4.029-.172-11.805s.033-8.751.172-11.805c.139-3.048.623-5.129,1.331-6.95.732-1.883,1.711-3.48,3.302-5.071,1.592-1.592,3.189-2.571,5.071-3.302,1.821-.708,3.902-1.192,6.95-1.331,3.054-.139,4.029-.172,11.805-.172s8.751.033,11.805.172c3.048.139,5.129.623,6.95,1.331,1.883.732,3.48,1.711,5.071,3.302s2.571,3.189,3.303,5.071c.708,1.821,1.192,3.902,1.331,6.95.139,3.054.172,4.029.172,11.805s-.033,8.751-.172,11.805Z"/>
      <path class="st0" d="M72.32,33.114c-.519-1.336-1.14-2.29-2.142-3.292s-1.956-1.622-3.292-2.142c-1.009-.392-2.525-.858-5.317-.986-3.019-.138-3.925-.167-11.57-.167s-8.551.029-11.57.167c-2.792.127-4.308.594-5.317.986-1.336.519-2.29,1.14-3.292,2.142s-1.622,1.956-2.142,3.292c-.392,1.009-.858,2.525-.986,5.317-.138,3.019-.167,3.925-.167,11.57s.029,8.551.167,11.57c.127,2.791.594,4.308.986,5.317.519,1.336,1.14,2.29,2.142,3.292s1.956,1.622,3.292,2.142c1.009.392,2.525.858,5.317.986,3.019.138,3.924.167,11.57.167s8.551-.029,11.57-.167c2.791-.127,4.308-.594,5.317-.986,1.336-.519,2.29-1.14,3.292-2.142s1.622-1.956,2.142-3.292c.392-1.009.858-2.525.986-5.317.138-3.019.167-3.925.167-11.57s-.029-8.551-.167-11.57c-.127-2.792-.594-4.308-.986-5.317ZM50,64.703c-8.12,0-14.703-6.583-14.703-14.703s6.583-14.703,14.703-14.703,14.703,6.583,14.703,14.703-6.583,14.703-14.703,14.703ZM65.284,38.152c-1.898,0-3.436-1.538-3.436-3.436s1.538-3.436,3.436-3.436,3.436,1.538,3.436,3.436-1.538,3.436-3.436,3.436Z"/>
    </g>
  </g>
</svg>